<?xml version="1.0" encoding="UTF-8" standalone="no"?>
<!-- Created with Inkscape (http://www.inkscape.org/) -->

<svg
   xmlns:dc="http://purl.org/dc/elements/1.1/"
   xmlns:cc="http://creativecommons.org/ns#"
   xmlns:rdf="http://www.w3.org/1999/02/22-rdf-syntax-ns#"
   xmlns:svg="http://www.w3.org/2000/svg"
   xmlns="http://www.w3.org/2000/svg"
   xmlns:sodipodi="http://sodipodi.sourceforge.net/DTD/sodipodi-0.dtd"
   xmlns:inkscape="http://www.inkscape.org/namespaces/inkscape"
   width="1052.2523"
   height="1206.0375"
   id="svg2"
   version="1.1"
   inkscape:version="0.48.1 "
   sodipodi:docname="Documento nuevo 1">
  <defs
     id="defs4">
    <filter
       inkscape:collect="always"
       id="filter3815"
       color-interpolation-filters="sRGB">
      <feGaussianBlur
         inkscape:collect="always"
         stdDeviation="1.4513847"
         id="feGaussianBlur3817" />
    </filter>
  </defs>
  <sodipodi:namedview
     id="base"
     pagecolor="#ffffff"
     bordercolor="#666666"
     borderopacity="1.0"
     inkscape:pageopacity="0.0"
     inkscape:pageshadow="2"
     inkscape:zoom="0.33163487"
     inkscape:cx="614.90439"
     inkscape:cy="631.80391"
     inkscape:document-units="px"
     inkscape:current-layer="layer1"
     showgrid="false"
     showguides="true"
     inkscape:guide-bbox="true"
     fit-margin-top="0"
     fit-margin-left="0"
     fit-margin-right="0"
     fit-margin-bottom="0"
     inkscape:window-width="1024"
     inkscape:window-height="538"
     inkscape:window-x="-8"
     inkscape:window-y="-8"
     inkscape:window-maximized="1">
    <sodipodi:guide
       orientation="-0.70710678,0.70710678"
       position="-538.12223,1115.3996"
       id="guide3017" />
  </sodipodi:namedview>
  <metadata
     id="metadata7">
    <rdf:RDF>
      <cc:Work
         rdf:about="">
        <dc:format>image/svg+xml</dc:format>
        <dc:type
           rdf:resource="http://purl.org/dc/dcmitype/StillImage" />
        <dc:title></dc:title>
      </cc:Work>
    </rdf:RDF>
  </metadata>
  <g
     inkscape:label="Capa 1"
     inkscape:groupmode="layer"
     id="layer1"
     transform="translate(242.85715,389.15898)">
    <path
       style="fill:#ff8080;fill-opacity:1;stroke:none"
       d="m 689.91391,206.72007 c 0,0 -35.39269,-168.881243 12.03669,-228.696937 40.23435,-50.741665 40.44794,18.3993379 68.49561,-39.968871 13.63487,-28.374651 25.55668,-29.686812 30.7017,-26.078011 16.10461,11.296043 5.07636,10.784126 -3.195,51.081552 -15.20515,74.07837 -19.74157,0.372606 -65.46409,60.607582 -56.12309,73.936701 -18.50153,345.549855 -33.54739,261.293115 -15.04584,-84.25677 -9.02752,-78.23843 -9.02752,-78.23843 z"
       id="path3041"
       inkscape:connector-curvature="0"
       sodipodi:nodetypes="cssssssc" />
    <path
       style="fill:#ffd5d5;fill-opacity:1;stroke:none"
       d="m 664.79167,461.33906 c 0,0 23.15584,131.69254 -1.34249,147.71096 -29.87358,19.53308 -96.24847,-51.92321 -96.24847,-51.92321 z"
       id="path3037"
       inkscape:connector-curvature="0"
       sodipodi:nodetypes="cscc" />
    <path
       sodipodi:nodetypes="ccc"
       inkscape:connector-curvature="0"
       id="path3039"
       d="m 547.68099,536.85339 c 110.22957,119.22534 159.39637,117.77592 119.43035,-63.09058 11.1161,119.39664 -8.3774,178.83631 -119.43035,63.09058 z"
       style="fill:#ff8080;fill-opacity:1;stroke:none" />
    <path
       sodipodi:nodetypes="cscc"
       inkscape:connector-curvature="0"
       id="path3035"
       d="m 440.59891,615.21895 c 0,0 -13.26589,177.42672 -50.10733,190.06227 -44.92494,15.40797 -107.12601,-98.48681 -107.12601,-98.48681 z"
       style="fill:#ffd5d5;fill-opacity:1;stroke:none" />
    <path
       style="fill:#ffd5d5;fill-opacity:1;stroke:none"
       d="m -74.297072,578.93433 c 0,0 13.265894,177.42672 50.107328,190.06227 44.924943,15.40797 107.12601,-98.48681 107.12601,-98.48681 z"
       id="path3033"
       inkscape:connector-curvature="0"
       sodipodi:nodetypes="cscc" />
    <path
       sodipodi:nodetypes="cccccc"
       inkscape:connector-curvature="0"
       id="path3023"
       d="M 711.83383,-172.12286 575.14878,-274.40075 589.18725,-109.42592 370.07082,-230.90794 574.23301,-389.15898 z"
       style="fill:#ff8080;fill-opacity:1;stroke:none" />
    <path
       sodipodi:nodetypes="csssssssc"
       inkscape:connector-curvature="0"
       id="path3043"
       d="m 689.91391,206.72007 c 0,0 -30.20917,-155.058532 17.22021,-214.874226 40.23435,-50.741665 40.93514,14.1742784 69.31256,-46.831963 13.27729,-28.543724 14.81593,-29.69659 21.37413,-26.627648 8.11507,3.797488 -3.42457,16.141267 -7.1746,39.021469 -6.38726,38.9707571 -17.48032,32.130089 -35.51741,34.0625084 -7.49081,0.8025349 -17.86253,0.6973379 -31.27917,18.3724636 -56.12308,73.936707 -9.86234,359.372566 -24.9082,275.115826 -15.04584,-84.25677 -9.02752,-78.23843 -9.02752,-78.23843 z"
       style="fill:#ffd5d5;fill-opacity:1;stroke:none" />
    <path
       sodipodi:type="arc"
       style="fill:#ff8080;fill-opacity:1;stroke:none"
       id="path2989"
       sodipodi:cx="242.85715"
       sodipodi:cy="226.6479"
       sodipodi:rx="485.71429"
       sodipodi:ry="485.71429"
       d="m 728.57144,226.6479 c 0,268.2526 -217.4617,485.7143 -485.71429,485.7143 -268.2526,0 -485.7143,-217.4617 -485.7143,-485.7143 0,-268.252594 217.4617,-485.71429 485.7143,-485.71429 268.25259,0 485.71429,217.461696 485.71429,485.71429 z" />
    <path
       sodipodi:nodetypes="ccccc"
       inkscape:connector-curvature="0"
       id="path3025"
       d="m 514.66784,-325.54461 49.30383,37.01177 6.39392,159.7339 c -59.30217,-50.83424 -118.60434,-80.76802 -177.90651,-99.50703 z"
       style="fill:#ffd5d5;fill-opacity:1;stroke:none" />
    <path
       d="m 728.57144,226.6479 c 0,268.2526 -217.4617,485.7143 -485.71429,485.7143 -268.2526,0 -485.7143,-217.4617 -485.7143,-485.7143 0,-268.252594 217.4617,-485.71429 485.7143,-485.71429 268.25259,0 485.71429,217.461696 485.71429,485.71429 z"
       sodipodi:ry="485.71429"
       sodipodi:rx="485.71429"
       sodipodi:cy="226.6479"
       sodipodi:cx="242.85715"
       id="path2993"
       style="fill:#ffd5d5;fill-opacity:1;stroke:none"
       sodipodi:type="arc"
       transform="matrix(0.94411765,0,0,0.94411765,9.571428,6.665617)" />
    <path
       style="fill:#ff8080;fill-opacity:1;stroke:none"
       d="M -231.92918,-172.12286 -95.244127,-286.49562 -109.2826,-109.42592 109.83383,-230.90794 -94.328358,-389.15898 z"
       id="path3015"
       inkscape:connector-curvature="0"
       sodipodi:nodetypes="cccccc" />
    <path
       transform="translate(802.08694,-99.507022)"
       d="m -530.70412,155.29128 c 0,47.46218 -31.05056,85.93788 -69.35338,85.93788 -38.30281,0 -69.35337,-38.4757 -69.35337,-85.93788 0,-47.46219 31.05056,-85.937894 69.35337,-85.937894 38.30282,0 69.35338,38.475704 69.35338,85.937894 z"
       sodipodi:ry="85.937889"
       sodipodi:rx="69.353378"
       sodipodi:cy="155.29128"
       sodipodi:cx="-600.0575"
       id="path3005"
       style="fill:#000000;fill-opacity:1;stroke:none"
       sodipodi:type="arc" />
    <path
       sodipodi:type="arc"
       style="fill:#000000;fill-opacity:1;stroke:none"
       id="path2999"
       sodipodi:cx="-600.0575"
       sodipodi:cy="155.29128"
       sodipodi:rx="69.353378"
       sodipodi:ry="85.937889"
       d="m -530.70412,155.29128 c 0,47.46218 -31.05056,85.93788 -69.35338,85.93788 -38.30281,0 -69.35337,-38.4757 -69.35337,-85.93788 0,-47.46219 31.05056,-85.937894 69.35337,-85.937894 38.30282,0 69.35338,38.475704 69.35338,85.937894 z"
       transform="translate(536.73487,-111.56848)" />
    <path
       style="fill:#ff5555;fill-opacity:1;stroke:none"
       d="M -2.409451e-6,449.2893 159.81432,452.30466 c 0,0 -79.394772,91.951 -120.614582,90.46094 C -0.80271241,541.31955 -2.409451e-6,449.2893 -2.409451e-6,449.2893 z"
       id="path3013"
       inkscape:connector-curvature="0"
       sodipodi:nodetypes="ccsc" />
    <path
       d="m 728.57144,226.6479 c 0,268.2526 -217.4617,485.7143 -485.71429,485.7143 -268.2526,0 -485.7143,-217.4617 -485.7143,-485.7143 0,-268.252594 217.4617,-485.71429 485.7143,-485.71429 268.25259,0 485.71429,217.461696 485.71429,485.71429 z"
       sodipodi:ry="485.71429"
       sodipodi:rx="485.71429"
       sodipodi:cy="226.6479"
       sodipodi:cx="242.85715"
       id="path2995"
       style="fill:#ff8080;fill-opacity:1;stroke:none"
       sodipodi:type="arc"
       transform="matrix(0.43506262,0,0,0.44747882,-49.753514,170.45824)" />
    <path
       sodipodi:type="arc"
       style="fill:#ffffff;fill-opacity:1;stroke:none"
       id="path3007"
       sodipodi:cx="-600.0575"
       sodipodi:cy="155.29128"
       sodipodi:rx="69.353378"
       sodipodi:ry="85.937889"
       d="m -530.70412,155.29128 c 0,47.46218 -31.05056,85.93788 -69.35338,85.93788 -38.30281,0 -69.35337,-38.4757 -69.35337,-85.93788 0,-47.46219 31.05056,-85.937894 69.35337,-85.937894 38.30282,0 69.35338,38.475704 69.35338,85.937894 z"
       transform="matrix(0.42105265,0,0,0.42105265,429.64084,-36.278241)" />
    <path
       transform="matrix(0.37970978,0,0,0.41005645,-38.050934,176.25507)"
       sodipodi:type="arc"
       style="fill:#ffd5d5;fill-opacity:1;stroke:none"
       id="path2997"
       sodipodi:cx="242.85715"
       sodipodi:cy="226.6479"
       sodipodi:rx="485.71429"
       sodipodi:ry="485.71429"
       d="m 728.57144,226.6479 c 0,268.2526 -217.4617,485.7143 -485.71429,485.7143 -268.2526,0 -485.7143,-217.4617 -485.7143,-485.7143 0,-268.252594 217.4617,-485.71429 485.7143,-485.71429 268.25259,0 485.71429,217.461696 485.71429,485.71429 z" />
    <path
       transform="matrix(0.42105265,0,0,0.42105265,164.28877,-48.339699)"
       d="m -530.70412,155.29128 c 0,47.46218 -31.05056,85.93788 -69.35338,85.93788 -38.30281,0 -69.35337,-38.4757 -69.35337,-85.93788 0,-47.46219 31.05056,-85.937894 69.35337,-85.937894 38.30282,0 69.35338,38.475704 69.35338,85.937894 z"
       sodipodi:ry="85.937889"
       sodipodi:rx="69.353378"
       sodipodi:cy="155.29128"
       sodipodi:cx="-600.0575"
       id="path3003"
       style="fill:#ffffff;fill-opacity:1;stroke:none"
       sodipodi:type="arc" />
    <path
       sodipodi:type="arc"
       style="fill:#ff5555;fill-opacity:1;stroke:none"
       id="path3009"
       sodipodi:cx="-360.33606"
       sodipodi:cy="221.62929"
       sodipodi:rx="43.722786"
       sodipodi:ry="73.876427"
       d="m -316.61327,221.62929 c 0,40.80082 -19.57536,73.87642 -43.72279,73.87642 -24.14743,0 -43.72279,-33.0756 -43.72279,-73.87642 0,-40.80083 19.57536,-73.87643 43.72279,-73.87643 24.14743,0 43.72279,33.0756 43.72279,73.87643 z"
       transform="matrix(0.62068967,0,0,1.0612245,202.54931,24.122915)" />
    <path
       transform="matrix(0.62068967,0,0,1.0612245,308.54931,24.122915)"
       d="m -316.61327,221.62929 c 0,40.80082 -19.57536,73.87642 -43.72279,73.87642 -24.14743,0 -43.72279,-33.0756 -43.72279,-73.87642 0,-40.80083 19.57536,-73.87643 43.72279,-73.87643 24.14743,0 43.72279,33.0756 43.72279,73.87643 z"
       sodipodi:ry="73.876427"
       sodipodi:rx="43.722786"
       sodipodi:cy="221.62929"
       sodipodi:cx="-360.33606"
       id="path3011"
       style="fill:#ff5555;fill-opacity:1;stroke:none"
       sodipodi:type="arc" />
    <path
       style="fill:#ffd5d5;fill-opacity:1;stroke:none"
       d="m -81.414838,-367.01274 -9.046099,238.2138 c 59.302169,-50.83424 118.604339,-80.76802 177.906508,-99.50703 z"
       id="path3019"
       inkscape:connector-curvature="0"
       sodipodi:nodetypes="cccc" />
    <path
       style="fill:#ffd5d5;fill-opacity:1;stroke:none"
       d="m -94.323512,-373.48379 -95.644448,157.23927 93.476301,-84.4302 z"
       id="path3021"
       inkscape:connector-curvature="0"
       sodipodi:nodetypes="cccc" />
    <path
       sodipodi:nodetypes="cccc"
       inkscape:connector-curvature="0"
       id="path3027"
       d="m 574.22816,-371.75595 95.64445,155.51143 -145.31146,-120.71482 z"
       style="fill:#ffd5d5;fill-opacity:1;stroke:none" />
    <path
       style="fill:#ff8080;fill-opacity:1;stroke:none"
       d="m 264.83073,674.25511 c 103.11563,189.86484 167.00045,204.09785 174.69102,-42.25362 -24.76651,157.6257 -69.37389,227.90047 -174.69102,42.25362 z"
       id="path3029"
       inkscape:connector-curvature="0"
       sodipodi:nodetypes="ccc" />
    <path
       sodipodi:nodetypes="ccc"
       inkscape:connector-curvature="0"
       id="path3031"
       d="M 103.52175,634.25511 C 0.40612,824.11995 -63.4787,838.35296 -71.16927,592.00149 c 24.76651,157.6257 69.37389,227.90047 174.69102,42.25362 z"
       style="fill:#ff8080;fill-opacity:1;stroke:none" />
  </g>
</svg>
